<svg width="265" height="51" viewBox="0 0 265 51" fill="none" xmlns="http://www.w3.org/2000/svg">
<rect width="265" height="51" rx="7" fill="#B9FF66"/>
<path d="M20.32 39.56C16.9067 39.56 14.2 38.6 12.2 36.68C10.2 34.7333 9.2 31.9333 9.2 28.28V21.72C9.2 18.0667 10.2 15.28 12.2 13.36C14.2 11.4133 16.9067 10.44 20.32 10.44C23.68 10.44 26.2667 11.3733 28.08 13.24C29.92 15.1067 30.84 17.6533 30.84 20.88V21.12H26.56V20.76C26.56 18.8667 26.04 17.32 25 16.12C23.9867 14.92 22.4267 14.32 20.32 14.32C18.1867 14.32 16.52 14.9733 15.32 16.28C14.12 17.56 13.52 19.3467 13.52 21.64V28.36C13.52 30.6267 14.12 32.4133 15.32 33.72C16.52 35.0267 18.1867 35.68 20.32 35.68C22.4267 35.68 23.9867 35.08 25 33.88C26.04 32.6533 26.56 31.1067 26.56 29.24V28.56H30.84V29.12C30.84 32.3467 29.92 34.8933 28.08 36.76C26.2667 38.6267 23.68 39.56 20.32 39.56ZM41.8631 39.56C40.4498 39.56 39.1831 39.32 38.0631 38.84C36.9698 38.36 36.0898 37.6533 35.4231 36.72C34.7831 35.7867 34.4631 34.6533 34.4631 33.32C34.4631 31.96 34.7831 30.84 35.4231 29.96C36.0898 29.0533 36.9831 28.3733 38.1031 27.92C39.2498 27.4667 40.5431 27.24 41.9831 27.24H47.9831V25.96C47.9831 24.8133 47.6365 23.8933 46.9431 23.2C46.2498 22.5067 45.1831 22.16 43.7431 22.16C42.3298 22.16 41.2498 22.4933 40.5031 23.16C39.7565 23.8267 39.2631 24.6933 39.0231 25.76L35.1831 24.52C35.5031 23.4533 36.0098 22.4933 36.7031 21.64C37.4231 20.76 38.3698 20.0533 39.5431 19.52C40.7165 18.9867 42.1298 18.72 43.7831 18.72C46.3431 18.72 48.3565 19.3733 49.8231 20.68C51.2898 21.9867 52.0231 23.84 52.0231 26.24V34.36C52.0231 35.16 52.3965 35.56 53.1431 35.56H54.8231V39H51.7431C50.8098 39 50.0498 38.76 49.4631 38.28C48.8765 37.8 48.5831 37.1467 48.5831 36.32V36.2H47.9831C47.7698 36.6 47.4498 37.0667 47.0231 37.6C46.5965 38.1333 45.9698 38.6 45.1431 39C44.3165 39.3733 43.2231 39.56 41.8631 39.56ZM42.4631 36.16C44.1165 36.16 45.4498 35.6933 46.4631 34.76C47.4765 33.8 47.9831 32.4933 47.9831 30.84V30.44H42.2231C41.1298 30.44 40.2498 30.68 39.5831 31.16C38.9165 31.6133 38.5831 32.2933 38.5831 33.2C38.5831 34.1067 38.9298 34.8267 39.6231 35.36C40.3165 35.8933 41.2631 36.16 42.4631 36.16ZM66.7528 39.56C64.2461 39.56 62.1661 39 60.5128 37.88C58.8595 36.76 57.8461 35.0667 57.4728 32.8L61.3128 31.88C61.5261 32.9733 61.8861 33.84 62.3928 34.48C62.8995 35.12 63.5261 35.5733 64.2728 35.84C65.0461 36.1067 65.8728 36.24 66.7528 36.24C68.0595 36.24 69.0595 35.9867 69.7528 35.48C70.4728 34.9733 70.8328 34.32 70.8328 33.52C70.8328 32.72 70.4995 32.1333 69.8328 31.76C69.1661 31.3867 68.1795 31.08 66.8728 30.84L65.5128 30.6C64.1795 30.36 62.9661 30.0133 61.8728 29.56C60.7795 29.1067 59.9128 28.48 59.2728 27.68C58.6328 26.88 58.3128 25.8533 58.3128 24.6C58.3128 22.7333 59.0061 21.2933 60.3928 20.28C61.7795 19.24 63.6195 18.72 65.9128 18.72C68.1261 18.72 69.9395 19.2267 71.3528 20.24C72.7928 21.2267 73.7261 22.5733 74.1528 24.28L70.3128 25.36C70.0728 24.16 69.5661 23.32 68.7928 22.84C68.0195 22.3333 67.0595 22.08 65.9128 22.08C64.7928 22.08 63.9128 22.2933 63.2728 22.72C62.6328 23.12 62.3128 23.6933 62.3128 24.44C62.3128 25.24 62.6195 25.8267 63.2328 26.2C63.8728 26.5733 64.7261 26.8533 65.7928 27.04L67.1928 27.28C68.6061 27.52 69.8995 27.8533 71.0728 28.28C72.2461 28.7067 73.1661 29.32 73.8328 30.12C74.5261 30.92 74.8728 31.9867 74.8728 33.32C74.8728 35.2933 74.1395 36.8267 72.6728 37.92C71.2061 39.0133 69.2328 39.56 66.7528 39.56ZM88.7284 39.56C86.7284 39.56 84.9818 39.1467 83.4884 38.32C81.9951 37.4667 80.8218 36.28 79.9684 34.76C79.1418 33.2133 78.7284 31.4267 78.7284 29.4V28.92C78.7284 26.8667 79.1418 25.08 79.9684 23.56C80.7951 22.0133 81.9418 20.8267 83.4084 20C84.9018 19.1467 86.6218 18.72 88.5684 18.72C90.4618 18.72 92.1151 19.1467 93.5284 20C94.9684 20.8267 96.0884 21.9867 96.8884 23.48C97.6884 24.9733 98.0884 26.72 98.0884 28.72V30.28H82.9284C82.9818 32.0133 83.5551 33.4 84.6484 34.44C85.7684 35.4533 87.1551 35.96 88.8084 35.96C90.3551 35.96 91.5151 35.6133 92.2884 34.92C93.0884 34.2267 93.7018 33.4267 94.1284 32.52L97.5284 34.28C97.1551 35.0267 96.6084 35.8133 95.8884 36.64C95.1951 37.4667 94.2751 38.16 93.1284 38.72C91.9818 39.28 90.5151 39.56 88.7284 39.56ZM82.9684 27.12H93.8884C93.7818 25.6267 93.2484 24.4667 92.2884 23.64C91.3284 22.7867 90.0751 22.36 88.5284 22.36C86.9818 22.36 85.7151 22.7867 84.7284 23.64C83.7684 24.4667 83.1818 25.6267 82.9684 27.12ZM122.643 39.56C120.536 39.56 118.67 39.1867 117.043 38.44C115.416 37.6933 114.136 36.6 113.203 35.16C112.296 33.6933 111.843 31.92 111.843 29.84V28.84H116.123V29.84C116.123 31.8133 116.71 33.2933 117.883 34.28C119.083 35.2667 120.67 35.76 122.643 35.76C124.643 35.76 126.15 35.3467 127.163 34.52C128.176 33.6667 128.683 32.5733 128.683 31.24C128.683 30.36 128.443 29.64 127.963 29.08C127.483 28.52 126.803 28.08 125.923 27.76C125.043 27.4133 123.99 27.0933 122.763 26.8L121.283 26.44C119.496 26.0133 117.936 25.4933 116.603 24.88C115.296 24.24 114.283 23.4 113.563 22.36C112.843 21.32 112.483 19.9867 112.483 18.36C112.483 16.7067 112.883 15.2933 113.683 14.12C114.51 12.9467 115.643 12.04 117.083 11.4C118.523 10.76 120.216 10.44 122.163 10.44C124.11 10.44 125.843 10.7733 127.363 11.44C128.91 12.1067 130.123 13.0933 131.003 14.4C131.883 15.7067 132.323 17.3467 132.323 19.32V20.76H128.043V19.32C128.043 18.12 127.79 17.1467 127.283 16.4C126.803 15.6533 126.123 15.1067 125.243 14.76C124.363 14.4133 123.336 14.24 122.163 14.24C120.456 14.24 119.123 14.6 118.163 15.32C117.23 16.0133 116.763 16.9867 116.763 18.24C116.763 19.0933 116.963 19.8 117.363 20.36C117.79 20.8933 118.403 21.3333 119.203 21.68C120.003 22.0267 121.003 22.3333 122.203 22.6L123.683 22.96C125.496 23.36 127.096 23.88 128.483 24.52C129.87 25.1333 130.963 25.9733 131.763 27.04C132.563 28.1067 132.963 29.48 132.963 31.16C132.963 32.84 132.536 34.3067 131.683 35.56C130.856 36.8133 129.67 37.8 128.123 38.52C126.576 39.2133 124.75 39.56 122.643 39.56ZM145.018 39C143.818 39 142.858 38.64 142.138 37.92C141.445 37.2 141.098 36.24 141.098 35.04V22.76H135.658V19.28H141.098V12.76H145.218V19.28H151.098V22.76H145.218V34.32C145.218 35.12 145.591 35.52 146.338 35.52H150.458V39H145.018ZM163.498 39.36C162.005 39.36 160.672 39.0267 159.498 38.36C158.325 37.6933 157.405 36.7467 156.738 35.52C156.072 34.2933 155.738 32.8267 155.738 31.12V19.28H159.858V30.84C159.858 32.5467 160.285 33.8133 161.138 34.64C161.992 35.44 163.178 35.84 164.698 35.84C166.378 35.84 167.725 35.28 168.738 34.16C169.778 33.0133 170.298 31.3733 170.298 29.24V19.28H174.418V39H170.378V36.04H169.738C169.365 36.84 168.698 37.6 167.738 38.32C166.778 39.0133 165.365 39.36 163.498 39.36ZM188.669 39.56C187.042 39.56 185.535 39.16 184.149 38.36C182.762 37.56 181.642 36.4133 180.789 34.92C179.962 33.4 179.549 31.5733 179.549 29.44V28.84C179.549 26.7333 179.962 24.92 180.789 23.4C181.615 21.88 182.722 20.72 184.109 19.92C185.495 19.12 187.015 18.72 188.669 18.72C189.949 18.72 191.015 18.88 191.869 19.2C192.749 19.52 193.469 19.9333 194.029 20.44C194.589 20.92 195.015 21.4267 195.309 21.96H195.949V11H200.069V39H196.029V36.2H195.389C194.882 37.0533 194.109 37.8267 193.069 38.52C192.055 39.2133 190.589 39.56 188.669 39.56ZM189.829 35.96C191.615 35.96 193.082 35.3867 194.229 34.24C195.402 33.0933 195.989 31.4533 195.989 29.32V28.96C195.989 26.8533 195.415 25.2267 194.269 24.08C193.122 22.9333 191.642 22.36 189.829 22.36C188.069 22.36 186.602 22.9333 185.429 24.08C184.282 25.2267 183.709 26.8533 183.709 28.96V29.32C183.709 31.4533 184.282 33.0933 185.429 34.24C186.602 35.3867 188.069 35.96 189.829 35.96ZM206.134 39V19.28H210.254V39H206.134ZM208.214 16.6C207.414 16.6 206.734 16.3467 206.174 15.84C205.64 15.3067 205.374 14.6267 205.374 13.8C205.374 12.9733 205.64 12.3067 206.174 11.8C206.734 11.2667 207.414 11 208.214 11C209.04 11 209.72 11.2667 210.254 11.8C210.787 12.3067 211.054 12.9733 211.054 13.8C211.054 14.6267 210.787 15.3067 210.254 15.84C209.72 16.3467 209.04 16.6 208.214 16.6ZM225.408 39.56C223.408 39.56 221.661 39.1467 220.168 38.32C218.675 37.4667 217.501 36.28 216.648 34.76C215.821 33.2133 215.408 31.4267 215.408 29.4V28.92C215.408 26.8667 215.821 25.08 216.648 23.56C217.475 22.0133 218.621 20.8267 220.088 20C221.581 19.1467 223.301 18.72 225.248 18.72C227.141 18.72 228.795 19.1467 230.208 20C231.648 20.8267 232.768 21.9867 233.568 23.48C234.368 24.9733 234.768 26.72 234.768 28.72V30.28H219.608C219.661 32.0133 220.235 33.4 221.328 34.44C222.448 35.4533 223.835 35.96 225.488 35.96C227.035 35.96 228.195 35.6133 228.968 34.92C229.768 34.2267 230.381 33.4267 230.808 32.52L234.208 34.28C233.835 35.0267 233.288 35.8133 232.568 36.64C231.875 37.4667 230.955 38.16 229.808 38.72C228.661 39.28 227.195 39.56 225.408 39.56ZM219.648 27.12H230.568C230.461 25.6267 229.928 24.4667 228.968 23.64C228.008 22.7867 226.755 22.36 225.208 22.36C223.661 22.36 222.395 22.7867 221.408 23.64C220.448 24.4667 219.861 25.6267 219.648 27.12ZM247.808 39.56C245.301 39.56 243.221 39 241.568 37.88C239.914 36.76 238.901 35.0667 238.528 32.8L242.368 31.88C242.581 32.9733 242.941 33.84 243.448 34.48C243.954 35.12 244.581 35.5733 245.328 35.84C246.101 36.1067 246.928 36.24 247.808 36.24C249.114 36.24 250.114 35.9867 250.808 35.48C251.528 34.9733 251.888 34.32 251.888 33.52C251.888 32.72 251.554 32.1333 250.888 31.76C250.221 31.3867 249.234 31.08 247.928 30.84L246.568 30.6C245.234 30.36 244.021 30.0133 242.928 29.56C241.834 29.1067 240.968 28.48 240.328 27.68C239.688 26.88 239.368 25.8533 239.368 24.6C239.368 22.7333 240.061 21.2933 241.448 20.28C242.834 19.24 244.674 18.72 246.967 18.72C249.181 18.72 250.994 19.2267 252.408 20.24C253.848 21.2267 254.781 22.5733 255.208 24.28L251.368 25.36C251.128 24.16 250.621 23.32 249.848 22.84C249.074 22.3333 248.114 22.08 246.967 22.08C245.848 22.08 244.968 22.2933 244.328 22.72C243.688 23.12 243.368 23.6933 243.368 24.44C243.368 25.24 243.674 25.8267 244.288 26.2C244.928 26.5733 245.781 26.8533 246.848 27.04L248.248 27.28C249.661 27.52 250.954 27.8533 252.128 28.28C253.301 28.7067 254.221 29.32 254.888 30.12C255.581 30.92 255.928 31.9867 255.928 33.32C255.928 35.2933 255.194 36.8267 253.728 37.92C252.261 39.0133 250.288 39.56 247.808 39.56Z" fill="black"/>
</svg>
