<svg width="229" height="51" viewBox="0 0 229 51" fill="none" xmlns="http://www.w3.org/2000/svg">
<rect width="229" height="51" rx="7" fill="#B9FF66"/>
<path d="M20.32 39.56C16.9067 39.56 14.2 38.6 12.2 36.68C10.2 34.7333 9.2 31.9333 9.2 28.28V21.72C9.2 18.0667 10.2 15.28 12.2 13.36C14.2 11.4133 16.9067 10.44 20.32 10.44C23.68 10.44 26.2667 11.3733 28.08 13.24C29.92 15.1067 30.84 17.6533 30.84 20.88V21.12H26.56V20.76C26.56 18.8667 26.04 17.32 25 16.12C23.9867 14.92 22.4267 14.32 20.32 14.32C18.1867 14.32 16.52 14.9733 15.32 16.28C14.12 17.56 13.52 19.3467 13.52 21.64V28.36C13.52 30.6267 14.12 32.4133 15.32 33.72C16.52 35.0267 18.1867 35.68 20.32 35.68C22.4267 35.68 23.9867 35.08 25 33.88C26.04 32.6533 26.56 31.1067 26.56 29.24V28.56H30.84V29.12C30.84 32.3467 29.92 34.8933 28.08 36.76C26.2667 38.6267 23.68 39.56 20.32 39.56ZM44.9831 39.56C43.0098 39.56 41.2498 39.16 39.7031 38.36C38.1831 37.5333 36.9831 36.36 36.1031 34.84C35.2231 33.32 34.7831 31.52 34.7831 29.44V28.84C34.7831 26.76 35.2231 24.9733 36.1031 23.48C36.9831 21.96 38.1831 20.7867 39.7031 19.96C41.2498 19.1333 43.0098 18.72 44.9831 18.72C46.9565 18.72 48.7165 19.1333 50.2631 19.96C51.8098 20.7867 53.0231 21.96 53.9031 23.48C54.7831 24.9733 55.2231 26.76 55.2231 28.84V29.44C55.2231 31.52 54.7831 33.32 53.9031 34.84C53.0231 36.36 51.8098 37.5333 50.2631 38.36C48.7165 39.16 46.9565 39.56 44.9831 39.56ZM44.9831 35.88C46.7965 35.88 48.2631 35.3067 49.3831 34.16C50.5298 32.9867 51.1031 31.3733 51.1031 29.32V28.96C51.1031 26.9067 50.5431 25.3067 49.4231 24.16C48.3031 22.9867 46.8231 22.4 44.9831 22.4C43.1965 22.4 41.7298 22.9867 40.5831 24.16C39.4631 25.3067 38.9031 26.9067 38.9031 28.96V29.32C38.9031 31.3733 39.4631 32.9867 40.5831 34.16C41.7298 35.3067 43.1965 35.88 44.9831 35.88ZM60.3525 39V19.28H64.3925V22.24H65.0325C65.4058 21.44 66.0725 20.6933 67.0325 20C67.9925 19.3067 69.4192 18.96 71.3125 18.96C72.8058 18.96 74.1258 19.2933 75.2725 19.96C76.4458 20.6267 77.3658 21.5733 78.0325 22.8C78.6992 24 79.0325 25.4533 79.0325 27.16V39H74.9125V27.48C74.9125 25.7733 74.4858 24.52 73.6325 23.72C72.7792 22.8933 71.6058 22.48 70.1125 22.48C68.4058 22.48 67.0325 23.04 65.9925 24.16C64.9792 25.28 64.4725 26.9067 64.4725 29.04V39H60.3525ZM91.815 39C90.615 39 89.655 38.64 88.935 37.92C88.2417 37.2 87.895 36.24 87.895 35.04V22.76H82.455V19.28H87.895V12.76H92.015V19.28H97.895V22.76H92.015V34.32C92.015 35.12 92.3883 35.52 93.135 35.52H97.255V39H91.815ZM108.816 39.56C107.403 39.56 106.136 39.32 105.016 38.84C103.923 38.36 103.043 37.6533 102.376 36.72C101.736 35.7867 101.416 34.6533 101.416 33.32C101.416 31.96 101.736 30.84 102.376 29.96C103.043 29.0533 103.936 28.3733 105.056 27.92C106.203 27.4667 107.496 27.24 108.936 27.24H114.936V25.96C114.936 24.8133 114.59 23.8933 113.896 23.2C113.203 22.5067 112.136 22.16 110.696 22.16C109.283 22.16 108.203 22.4933 107.456 23.16C106.71 23.8267 106.216 24.6933 105.976 25.76L102.136 24.52C102.456 23.4533 102.963 22.4933 103.656 21.64C104.376 20.76 105.323 20.0533 106.496 19.52C107.67 18.9867 109.083 18.72 110.736 18.72C113.296 18.72 115.31 19.3733 116.776 20.68C118.243 21.9867 118.976 23.84 118.976 26.24V34.36C118.976 35.16 119.35 35.56 120.096 35.56H121.776V39H118.696C117.763 39 117.003 38.76 116.416 38.28C115.83 37.8 115.536 37.1467 115.536 36.32V36.2H114.936C114.723 36.6 114.403 37.0667 113.976 37.6C113.55 38.1333 112.923 38.6 112.096 39C111.27 39.3733 110.176 39.56 108.816 39.56ZM109.416 36.16C111.07 36.16 112.403 35.6933 113.416 34.76C114.43 33.8 114.936 32.4933 114.936 30.84V30.44H109.176C108.083 30.44 107.203 30.68 106.536 31.16C105.87 31.6133 105.536 32.2933 105.536 33.2C105.536 34.1067 105.883 34.8267 106.576 35.36C107.27 35.8933 108.216 36.16 109.416 36.16ZM134.473 39.56C132.58 39.56 130.86 39.16 129.313 38.36C127.793 37.56 126.58 36.4 125.673 34.88C124.793 33.36 124.353 31.5333 124.353 29.4V28.88C124.353 26.7467 124.793 24.9333 125.673 23.44C126.58 21.92 127.793 20.76 129.313 19.96C130.86 19.1333 132.58 18.72 134.473 18.72C136.367 18.72 137.98 19.0667 139.313 19.76C140.647 20.4533 141.713 21.3733 142.513 22.52C143.34 23.6667 143.873 24.9333 144.113 26.32L140.113 27.16C139.98 26.28 139.7 25.48 139.273 24.76C138.847 24.04 138.247 23.4667 137.473 23.04C136.7 22.6133 135.727 22.4 134.553 22.4C133.407 22.4 132.367 22.6667 131.433 23.2C130.527 23.7067 129.807 24.4533 129.273 25.44C128.74 26.4 128.473 27.5733 128.473 28.96V29.32C128.473 30.7067 128.74 31.8933 129.273 32.88C129.807 33.8667 130.527 34.6133 131.433 35.12C132.367 35.6267 133.407 35.88 134.553 35.88C136.287 35.88 137.607 35.44 138.513 34.56C139.42 33.6533 139.993 32.5067 140.233 31.12L144.233 32.04C143.913 33.4 143.34 34.6533 142.513 35.8C141.713 36.9467 140.647 37.8667 139.313 38.56C137.98 39.2267 136.367 39.56 134.473 39.56ZM155.643 39C154.443 39 153.483 38.64 152.763 37.92C152.07 37.2 151.723 36.24 151.723 35.04V22.76H146.283V19.28H151.723V12.76H155.843V19.28H161.723V22.76H155.843V34.32C155.843 35.12 156.216 35.52 156.963 35.52H161.083V39H155.643ZM187.119 39.56C184.905 39.56 182.999 39.16 181.399 38.36C179.825 37.56 178.599 36.4133 177.719 34.92C176.865 33.4 176.439 31.56 176.439 29.4V11H180.799V29.52C180.799 31.4933 181.345 33.0133 182.439 34.08C183.532 35.1467 185.092 35.68 187.119 35.68C189.145 35.68 190.705 35.1467 191.799 34.08C192.892 33.0133 193.439 31.4933 193.439 29.52V11H197.759V29.4C197.759 31.56 197.332 33.4 196.479 34.92C195.625 36.4133 194.399 37.56 192.799 38.36C191.199 39.16 189.305 39.56 187.119 39.56ZM211.597 39.56C209.09 39.56 207.01 39 205.357 37.88C203.703 36.76 202.69 35.0667 202.317 32.8L206.157 31.88C206.37 32.9733 206.73 33.84 207.237 34.48C207.743 35.12 208.37 35.5733 209.117 35.84C209.89 36.1067 210.717 36.24 211.597 36.24C212.903 36.24 213.903 35.9867 214.597 35.48C215.317 34.9733 215.677 34.32 215.677 33.52C215.677 32.72 215.343 32.1333 214.677 31.76C214.01 31.3867 213.023 31.08 211.717 30.84L210.357 30.6C209.023 30.36 207.81 30.0133 206.717 29.56C205.623 29.1067 204.757 28.48 204.117 27.68C203.477 26.88 203.157 25.8533 203.157 24.6C203.157 22.7333 203.85 21.2933 205.237 20.28C206.623 19.24 208.463 18.72 210.757 18.72C212.97 18.72 214.783 19.2267 216.197 20.24C217.637 21.2267 218.57 22.5733 218.997 24.28L215.157 25.36C214.917 24.16 214.41 23.32 213.637 22.84C212.863 22.3333 211.903 22.08 210.757 22.08C209.637 22.08 208.757 22.2933 208.117 22.72C207.477 23.12 207.157 23.6933 207.157 24.44C207.157 25.24 207.463 25.8267 208.077 26.2C208.717 26.5733 209.57 26.8533 210.637 27.04L212.037 27.28C213.45 27.52 214.743 27.8533 215.917 28.28C217.09 28.7067 218.01 29.32 218.677 30.12C219.37 30.92 219.717 31.9867 219.717 33.32C219.717 35.2933 218.983 36.8267 217.517 37.92C216.05 39.0133 214.077 39.56 211.597 39.56Z" fill="black"/>
</svg>
