<svg width="115" height="51" viewBox="0 0 115 51" fill="none" xmlns="http://www.w3.org/2000/svg">
<rect width="115" height="51" rx="7" fill="#B9FF66"/>
<path d="M16.6 39V14.92H8V11H29.52V14.92H20.92V39H16.6ZM38.7284 39.56C36.7284 39.56 34.9818 39.1467 33.4884 38.32C31.9951 37.4667 30.8218 36.28 29.9684 34.76C29.1418 33.2133 28.7284 31.4267 28.7284 29.4V28.92C28.7284 26.8667 29.1418 25.08 29.9684 23.56C30.7951 22.0133 31.9418 20.8267 33.4084 20C34.9018 19.1467 36.6218 18.72 38.5684 18.72C40.4618 18.72 42.1151 19.1467 43.5284 20C44.9684 20.8267 46.0884 21.9867 46.8884 23.48C47.6884 24.9733 48.0884 26.72 48.0884 28.72V30.28H32.9284C32.9818 32.0133 33.5551 33.4 34.6484 34.44C35.7684 35.4533 37.1551 35.96 38.8084 35.96C40.3551 35.96 41.5151 35.6133 42.2884 34.92C43.0884 34.2267 43.7018 33.4267 44.1284 32.52L47.5284 34.28C47.1551 35.0267 46.6084 35.8133 45.8884 36.64C45.1951 37.4667 44.2751 38.16 43.1284 38.72C41.9818 39.28 40.5151 39.56 38.7284 39.56ZM32.9684 27.12H43.8884C43.7818 25.6267 43.2484 24.4667 42.2884 23.64C41.3284 22.7867 40.0751 22.36 38.5284 22.36C36.9818 22.36 35.7151 22.7867 34.7284 23.64C33.7684 24.4667 33.1818 25.6267 32.9684 27.12ZM59.1678 39.56C57.7545 39.56 56.4878 39.32 55.3678 38.84C54.2745 38.36 53.3945 37.6533 52.7278 36.72C52.0878 35.7867 51.7678 34.6533 51.7678 33.32C51.7678 31.96 52.0878 30.84 52.7278 29.96C53.3945 29.0533 54.2878 28.3733 55.4078 27.92C56.5545 27.4667 57.8478 27.24 59.2878 27.24H65.2878V25.96C65.2878 24.8133 64.9411 23.8933 64.2478 23.2C63.5545 22.5067 62.4878 22.16 61.0478 22.16C59.6345 22.16 58.5545 22.4933 57.8078 23.16C57.0611 23.8267 56.5678 24.6933 56.3278 25.76L52.4878 24.52C52.8078 23.4533 53.3145 22.4933 54.0078 21.64C54.7278 20.76 55.6745 20.0533 56.8478 19.52C58.0211 18.9867 59.4345 18.72 61.0878 18.72C63.6478 18.72 65.6611 19.3733 67.1278 20.68C68.5945 21.9867 69.3278 23.84 69.3278 26.24V34.36C69.3278 35.16 69.7011 35.56 70.4478 35.56H72.1278V39H69.0478C68.1145 39 67.3545 38.76 66.7678 38.28C66.1811 37.8 65.8878 37.1467 65.8878 36.32V36.2H65.2878C65.0745 36.6 64.7545 37.0667 64.3278 37.6C63.9011 38.1333 63.2745 38.6 62.4478 39C61.6211 39.3733 60.5278 39.56 59.1678 39.56ZM59.7678 36.16C61.4211 36.16 62.7545 35.6933 63.7678 34.76C64.7811 33.8 65.2878 32.4933 65.2878 30.84V30.44H59.5278C58.4345 30.44 57.5545 30.68 56.8878 31.16C56.2211 31.6133 55.8878 32.2933 55.8878 33.2C55.8878 34.1067 56.2345 34.8267 56.9278 35.36C57.6211 35.8933 58.5678 36.16 59.7678 36.16ZM76.1338 39V19.28H80.1738V21.6H80.8138C81.1871 20.9067 81.7871 20.2933 82.6138 19.76C83.4404 19.2267 84.5604 18.96 85.9738 18.96C87.4404 18.96 88.6138 19.2667 89.4938 19.88C90.4004 20.4667 91.0804 21.2267 91.5338 22.16H92.1738C92.6271 21.2533 93.2804 20.4933 94.1338 19.88C95.0138 19.2667 96.2538 18.96 97.8538 18.96C99.1338 18.96 100.267 19.2267 101.254 19.76C102.24 20.2667 103.027 21.04 103.614 22.08C104.2 23.0933 104.494 24.36 104.494 25.88V39H100.374V26.2C100.374 25 100.04 24.08 99.3738 23.44C98.7338 22.7733 97.8138 22.44 96.6137 22.44C95.3338 22.44 94.3071 22.8533 93.5338 23.68C92.7604 24.5067 92.3738 25.6933 92.3738 27.24V39H88.2538V26.2C88.2538 25 87.9204 24.08 87.2538 23.44C86.6138 22.7733 85.6938 22.44 84.4938 22.44C83.2138 22.44 82.1871 22.8533 81.4138 23.68C80.6404 24.5067 80.2538 25.6933 80.2538 27.24V39H76.1338Z" fill="black"/>
</svg>
