<svg width="255" height="51" viewBox="0 0 255 51" fill="none" xmlns="http://www.w3.org/2000/svg">
<rect width="255" height="51" rx="7" fill="#B9FF66"/>
<path d="M16.6 39V14.92H8V11H29.52V14.92H20.92V39H16.6ZM38.7284 39.56C36.7284 39.56 34.9818 39.1467 33.4884 38.32C31.9951 37.4667 30.8218 36.28 29.9684 34.76C29.1418 33.2133 28.7284 31.4267 28.7284 29.4V28.92C28.7284 26.8667 29.1418 25.08 29.9684 23.56C30.7951 22.0133 31.9418 20.8267 33.4084 20C34.9018 19.1467 36.6218 18.72 38.5684 18.72C40.4618 18.72 42.1151 19.1467 43.5284 20C44.9684 20.8267 46.0884 21.9867 46.8884 23.48C47.6884 24.9733 48.0884 26.72 48.0884 28.72V30.28H32.9284C32.9818 32.0133 33.5551 33.4 34.6484 34.44C35.7684 35.4533 37.1551 35.96 38.8084 35.96C40.3551 35.96 41.5151 35.6133 42.2884 34.92C43.0884 34.2267 43.7018 33.4267 44.1284 32.52L47.5284 34.28C47.1551 35.0267 46.6084 35.8133 45.8884 36.64C45.1951 37.4667 44.2751 38.16 43.1284 38.72C41.9818 39.28 40.5151 39.56 38.7284 39.56ZM32.9684 27.12H43.8884C43.7818 25.6267 43.2484 24.4667 42.2884 23.64C41.3284 22.7867 40.0751 22.36 38.5284 22.36C36.9818 22.36 35.7151 22.7867 34.7284 23.64C33.7684 24.4667 33.1818 25.6267 32.9684 27.12ZM61.1278 39.56C58.6211 39.56 56.5411 39 54.8878 37.88C53.2345 36.76 52.2211 35.0667 51.8478 32.8L55.6878 31.88C55.9011 32.9733 56.2611 33.84 56.7678 34.48C57.2745 35.12 57.9011 35.5733 58.6478 35.84C59.4211 36.1067 60.2478 36.24 61.1278 36.24C62.4345 36.24 63.4345 35.9867 64.1278 35.48C64.8478 34.9733 65.2078 34.32 65.2078 33.52C65.2078 32.72 64.8745 32.1333 64.2078 31.76C63.5411 31.3867 62.5545 31.08 61.2478 30.84L59.8878 30.6C58.5545 30.36 57.3411 30.0133 56.2478 29.56C55.1545 29.1067 54.2878 28.48 53.6478 27.68C53.0078 26.88 52.6878 25.8533 52.6878 24.6C52.6878 22.7333 53.3811 21.2933 54.7678 20.28C56.1545 19.24 57.9945 18.72 60.2878 18.72C62.5011 18.72 64.3145 19.2267 65.7278 20.24C67.1678 21.2267 68.1011 22.5733 68.5278 24.28L64.6878 25.36C64.4478 24.16 63.9411 23.32 63.1678 22.84C62.3945 22.3333 61.4345 22.08 60.2878 22.08C59.1678 22.08 58.2878 22.2933 57.6478 22.72C57.0078 23.12 56.6878 23.6933 56.6878 24.44C56.6878 25.24 56.9945 25.8267 57.6078 26.2C58.2478 26.5733 59.1011 26.8533 60.1678 27.04L61.5678 27.28C62.9811 27.52 64.2745 27.8533 65.4478 28.28C66.6211 28.7067 67.5411 29.32 68.2078 30.12C68.9011 30.92 69.2478 31.9867 69.2478 33.32C69.2478 35.2933 68.5145 36.8267 67.0478 37.92C65.5811 39.0133 63.6078 39.56 61.1278 39.56ZM81.0338 39C79.8338 39 78.8738 38.64 78.1538 37.92C77.4604 37.2 77.1138 36.24 77.1138 35.04V22.76H71.6738V19.28H77.1138V12.76H81.2338V19.28H87.1138V22.76H81.2338V34.32C81.2338 35.12 81.6071 35.52 82.3537 35.52H86.4738V39H81.0338ZM91.9541 39V19.28H96.0741V39H91.9541ZM94.0341 16.6C93.2341 16.6 92.5541 16.3467 91.9941 15.84C91.4607 15.3067 91.1941 14.6267 91.1941 13.8C91.1941 12.9733 91.4607 12.3067 91.9941 11.8C92.5541 11.2667 93.2341 11 94.0341 11C94.8607 11 95.5407 11.2667 96.0741 11.8C96.6074 12.3067 96.8741 12.9733 96.8741 13.8C96.8741 14.6267 96.6074 15.3067 96.0741 15.84C95.5407 16.3467 94.8607 16.6 94.0341 16.6ZM102.188 39V19.28H106.228V21.6H106.868C107.242 20.9067 107.842 20.2933 108.668 19.76C109.495 19.2267 110.615 18.96 112.028 18.96C113.495 18.96 114.668 19.2667 115.548 19.88C116.455 20.4667 117.135 21.2267 117.588 22.16H118.228C118.682 21.2533 119.335 20.4933 120.188 19.88C121.068 19.2667 122.308 18.96 123.908 18.96C125.188 18.96 126.322 19.2267 127.308 19.76C128.295 20.2667 129.082 21.04 129.668 22.08C130.255 23.0933 130.548 24.36 130.548 25.88V39H126.428V26.2C126.428 25 126.095 24.08 125.428 23.44C124.788 22.7733 123.868 22.44 122.668 22.44C121.388 22.44 120.362 22.8533 119.588 23.68C118.815 24.5067 118.428 25.6933 118.428 27.24V39H114.308V26.2C114.308 25 113.975 24.08 113.308 23.44C112.668 22.7733 111.748 22.44 110.548 22.44C109.268 22.44 108.242 22.8533 107.468 23.68C106.695 24.5067 106.308 25.6933 106.308 27.24V39H102.188ZM145.725 39.56C143.752 39.56 141.992 39.16 140.445 38.36C138.925 37.5333 137.725 36.36 136.845 34.84C135.965 33.32 135.525 31.52 135.525 29.44V28.84C135.525 26.76 135.965 24.9733 136.845 23.48C137.725 21.96 138.925 20.7867 140.445 19.96C141.992 19.1333 143.752 18.72 145.725 18.72C147.699 18.72 149.459 19.1333 151.005 19.96C152.552 20.7867 153.765 21.96 154.645 23.48C155.525 24.9733 155.965 26.76 155.965 28.84V29.44C155.965 31.52 155.525 33.32 154.645 34.84C153.765 36.36 152.552 37.5333 151.005 38.36C149.459 39.16 147.699 39.56 145.725 39.56ZM145.725 35.88C147.539 35.88 149.005 35.3067 150.125 34.16C151.272 32.9867 151.845 31.3733 151.845 29.32V28.96C151.845 26.9067 151.285 25.3067 150.165 24.16C149.045 22.9867 147.565 22.4 145.725 22.4C143.939 22.4 142.472 22.9867 141.325 24.16C140.205 25.3067 139.645 26.9067 139.645 28.96V29.32C139.645 31.3733 140.205 32.9867 141.325 34.16C142.472 35.3067 143.939 35.88 145.725 35.88ZM161.095 39V19.28H165.135V22.24H165.775C166.148 21.44 166.815 20.6933 167.775 20C168.735 19.3067 170.161 18.96 172.055 18.96C173.548 18.96 174.868 19.2933 176.015 19.96C177.188 20.6267 178.108 21.5733 178.775 22.8C179.441 24 179.775 25.4533 179.775 27.16V39H175.655V27.48C175.655 25.7733 175.228 24.52 174.375 23.72C173.521 22.8933 172.348 22.48 170.855 22.48C169.148 22.48 167.775 23.04 166.735 24.16C165.721 25.28 165.215 26.9067 165.215 29.04V39H161.095ZM185.704 39V19.28H189.824V39H185.704ZM187.784 16.6C186.984 16.6 186.304 16.3467 185.744 15.84C185.211 15.3067 184.944 14.6267 184.944 13.8C184.944 12.9733 185.211 12.3067 185.744 11.8C186.304 11.2667 186.984 11 187.784 11C188.611 11 189.291 11.2667 189.824 11.8C190.357 12.3067 190.624 12.9733 190.624 13.8C190.624 14.6267 190.357 15.3067 189.824 15.84C189.291 16.3467 188.611 16.6 187.784 16.6ZM202.058 39.56C200.645 39.56 199.378 39.32 198.258 38.84C197.165 38.36 196.285 37.6533 195.618 36.72C194.978 35.7867 194.658 34.6533 194.658 33.32C194.658 31.96 194.978 30.84 195.618 29.96C196.285 29.0533 197.178 28.3733 198.298 27.92C199.445 27.4667 200.738 27.24 202.178 27.24H208.178V25.96C208.178 24.8133 207.832 23.8933 207.138 23.2C206.445 22.5067 205.378 22.16 203.938 22.16C202.525 22.16 201.445 22.4933 200.698 23.16C199.952 23.8267 199.458 24.6933 199.218 25.76L195.378 24.52C195.698 23.4533 196.205 22.4933 196.898 21.64C197.618 20.76 198.565 20.0533 199.738 19.52C200.912 18.9867 202.325 18.72 203.978 18.72C206.538 18.72 208.552 19.3733 210.018 20.68C211.485 21.9867 212.218 23.84 212.218 26.24V34.36C212.218 35.16 212.592 35.56 213.338 35.56H215.018V39H211.938C211.005 39 210.245 38.76 209.658 38.28C209.072 37.8 208.778 37.1467 208.778 36.32V36.2H208.178C207.965 36.6 207.645 37.0667 207.218 37.6C206.792 38.1333 206.165 38.6 205.338 39C204.512 39.3733 203.418 39.56 202.058 39.56ZM202.658 36.16C204.312 36.16 205.645 35.6933 206.658 34.76C207.672 33.8 208.178 32.4933 208.178 30.84V30.44H202.418C201.325 30.44 200.445 30.68 199.778 31.16C199.112 31.6133 198.778 32.2933 198.778 33.2C198.778 34.1067 199.125 34.8267 199.818 35.36C200.512 35.8933 201.458 36.16 202.658 36.16ZM219.024 39V11H223.144V39H219.024ZM237.339 39.56C234.832 39.56 232.752 39 231.099 37.88C229.445 36.76 228.432 35.0667 228.059 32.8L231.899 31.88C232.112 32.9733 232.472 33.84 232.979 34.48C233.485 35.12 234.112 35.5733 234.859 35.84C235.632 36.1067 236.459 36.24 237.339 36.24C238.645 36.24 239.645 35.9867 240.339 35.48C241.059 34.9733 241.419 34.32 241.419 33.52C241.419 32.72 241.085 32.1333 240.419 31.76C239.752 31.3867 238.765 31.08 237.459 30.84L236.099 30.6C234.765 30.36 233.552 30.0133 232.459 29.56C231.365 29.1067 230.499 28.48 229.859 27.68C229.219 26.88 228.899 25.8533 228.899 24.6C228.899 22.7333 229.592 21.2933 230.979 20.28C232.365 19.24 234.205 18.72 236.499 18.72C238.712 18.72 240.525 19.2267 241.939 20.24C243.379 21.2267 244.312 22.5733 244.739 24.28L240.899 25.36C240.659 24.16 240.152 23.32 239.379 22.84C238.605 22.3333 237.645 22.08 236.499 22.08C235.379 22.08 234.499 22.2933 233.859 22.72C233.219 23.12 232.899 23.6933 232.899 24.44C232.899 25.24 233.205 25.8267 233.819 26.2C234.459 26.5733 235.312 26.8533 236.379 27.04L237.779 27.28C239.192 27.52 240.485 27.8533 241.659 28.28C242.832 28.7067 243.752 29.32 244.419 30.12C245.112 30.92 245.459 31.9867 245.459 33.32C245.459 35.2933 244.725 36.8267 243.259 37.92C241.792 39.0133 239.819 39.56 237.339 39.56Z" fill="black"/>
</svg>
