<svg width="412" height="51" viewBox="0 0 412 51" fill="none" xmlns="http://www.w3.org/2000/svg">
<rect width="412" height="51" rx="7" fill="#B9FF66"/>
<path d="M20.44 39.56C17 39.56 14.2667 38.6 12.24 36.68C10.2133 34.7333 9.2 31.9333 9.2 28.28V21.72C9.2 18.0667 10.2133 15.28 12.24 13.36C14.2667 11.4133 17 10.44 20.44 10.44C23.88 10.44 26.6133 11.4133 28.64 13.36C30.6933 15.28 31.72 18.0667 31.72 21.72V28.28C31.72 31.9333 30.6933 34.7333 28.64 36.68C26.6133 38.6 23.88 39.56 20.44 39.56ZM20.44 35.68C22.6533 35.68 24.36 35.04 25.56 33.76C26.76 32.4533 27.36 30.68 27.36 28.44V21.56C27.36 19.32 26.76 17.56 25.56 16.28C24.36 14.9733 22.6533 14.32 20.44 14.32C18.28 14.32 16.5867 14.9733 15.36 16.28C14.1333 17.56 13.52 19.32 13.52 21.56V28.44C13.52 30.68 14.1333 32.4533 15.36 33.76C16.5867 35.04 18.28 35.68 20.44 35.68ZM44.5141 39.36C43.0207 39.36 41.6874 39.0267 40.5141 38.36C39.3407 37.6933 38.4207 36.7467 37.7541 35.52C37.0874 34.2933 36.7541 32.8267 36.7541 31.12V19.28H40.8741V30.84C40.8741 32.5467 41.3007 33.8133 42.1541 34.64C43.0074 35.44 44.1941 35.84 45.7141 35.84C47.3941 35.84 48.7407 35.28 49.7541 34.16C50.7941 33.0133 51.3141 31.3733 51.3141 29.24V19.28H55.4341V39H51.3941V36.04H50.7541C50.3807 36.84 49.7141 37.6 48.7541 38.32C47.7941 39.0133 46.3807 39.36 44.5141 39.36ZM61.5244 39V19.28H65.5644V21.6H66.2044C66.5244 20.7733 67.031 20.1733 67.7244 19.8C68.4444 19.4 69.3244 19.2 70.3644 19.2H72.7244V22.92H70.2044C68.871 22.92 67.7777 23.2933 66.9244 24.04C66.071 24.76 65.6444 25.88 65.6444 27.4V39H61.5244ZM89.315 39L85.195 11H89.515L92.875 36.08H93.515L97.835 11H105.395L109.715 36.08H110.355L113.675 11H117.995L113.875 39H106.315L101.915 13.56H101.275L96.915 39H89.315ZM131.233 39.56C129.26 39.56 127.5 39.16 125.953 38.36C124.433 37.5333 123.233 36.36 122.353 34.84C121.473 33.32 121.033 31.52 121.033 29.44V28.84C121.033 26.76 121.473 24.9733 122.353 23.48C123.233 21.96 124.433 20.7867 125.953 19.96C127.5 19.1333 129.26 18.72 131.233 18.72C133.206 18.72 134.966 19.1333 136.513 19.96C138.06 20.7867 139.273 21.96 140.153 23.48C141.033 24.9733 141.473 26.76 141.473 28.84V29.44C141.473 31.52 141.033 33.32 140.153 34.84C139.273 36.36 138.06 37.5333 136.513 38.36C134.966 39.16 133.206 39.56 131.233 39.56ZM131.233 35.88C133.046 35.88 134.513 35.3067 135.633 34.16C136.78 32.9867 137.353 31.3733 137.353 29.32V28.96C137.353 26.9067 136.793 25.3067 135.673 24.16C134.553 22.9867 133.073 22.4 131.233 22.4C129.446 22.4 127.98 22.9867 126.833 24.16C125.713 25.3067 125.153 26.9067 125.153 28.96V29.32C125.153 31.3733 125.713 32.9867 126.833 34.16C127.98 35.3067 129.446 35.88 131.233 35.88ZM146.603 39V19.28H150.643V21.6H151.283C151.603 20.7733 152.109 20.1733 152.803 19.8C153.523 19.4 154.403 19.2 155.443 19.2H157.803V22.92H155.283C153.949 22.92 152.856 23.2933 152.003 24.04C151.149 24.76 150.723 25.88 150.723 27.4V39H146.603ZM162.071 39V11H166.191V26.96H166.831L174.591 19.28H180.071L170.111 28.84L180.391 39H174.951L166.831 30.8H166.191V39H162.071ZM184.103 39V19.28H188.223V39H184.103ZM186.183 16.6C185.383 16.6 184.703 16.3467 184.143 15.84C183.609 15.3067 183.343 14.6267 183.343 13.8C183.343 12.9733 183.609 12.3067 184.143 11.8C184.703 11.2667 185.383 11 186.183 11C187.009 11 187.689 11.2667 188.223 11.8C188.756 12.3067 189.023 12.9733 189.023 13.8C189.023 14.6267 188.756 15.3067 188.223 15.84C187.689 16.3467 187.009 16.6 186.183 16.6ZM194.337 39V19.28H198.377V22.24H199.017C199.39 21.44 200.057 20.6933 201.017 20C201.977 19.3067 203.404 18.96 205.297 18.96C206.79 18.96 208.11 19.2933 209.257 19.96C210.43 20.6267 211.35 21.5733 212.017 22.8C212.684 24 213.017 25.4533 213.017 27.16V39H208.897V27.48C208.897 25.7733 208.47 24.52 207.617 23.72C206.764 22.8933 205.59 22.48 204.097 22.48C202.39 22.48 201.017 23.04 199.977 24.16C198.964 25.28 198.457 26.9067 198.457 29.04V39H194.337ZM217.986 29.24V28.64C217.986 26.56 218.4 24.7867 219.226 23.32C220.08 21.8533 221.2 20.72 222.586 19.92C223.973 19.12 225.493 18.72 227.146 18.72C229.066 18.72 230.533 19.08 231.546 19.8C232.586 20.52 233.346 21.2933 233.826 22.12H234.466V19.28H238.466V43.04C238.466 44.24 238.106 45.2 237.386 45.92C236.693 46.64 235.733 47 234.506 47H221.226V43.4H233.226C234 43.4 234.386 43 234.386 42.2V35.92H233.746C233.453 36.4 233.04 36.8933 232.506 37.4C231.973 37.9067 231.266 38.32 230.386 38.64C229.533 38.96 228.453 39.12 227.146 39.12C225.493 39.12 223.96 38.7333 222.546 37.96C221.16 37.16 220.053 36.0267 219.226 34.56C218.4 33.0667 217.986 31.2933 217.986 29.24ZM228.266 35.52C230.053 35.52 231.52 34.96 232.666 33.84C233.84 32.6933 234.426 31.12 234.426 29.12V28.76C234.426 26.7067 233.853 25.1333 232.706 24.04C231.56 22.92 230.08 22.36 228.266 22.36C226.506 22.36 225.04 22.92 223.866 24.04C222.72 25.1333 222.146 26.7067 222.146 28.76V29.12C222.146 31.12 222.72 32.6933 223.866 33.84C225.04 34.96 226.506 35.52 228.266 35.52ZM254.608 39V11H265.728C267.434 11 268.954 11.3467 270.288 12.04C271.648 12.7067 272.701 13.6667 273.448 14.92C274.221 16.1467 274.608 17.6267 274.608 19.36V19.88C274.608 21.6133 274.208 23.1067 273.408 24.36C272.634 25.6133 271.581 26.5733 270.248 27.24C268.914 27.9067 267.408 28.24 265.728 28.24H258.928V39H254.608ZM258.928 24.32H265.288C266.808 24.32 268.021 23.92 268.928 23.12C269.834 22.32 270.288 21.2267 270.288 19.84V19.44C270.288 18.0267 269.834 16.92 268.928 16.12C268.021 15.32 266.808 14.92 265.288 14.92H258.928V24.32ZM278.829 39V19.28H282.869V21.6H283.509C283.829 20.7733 284.336 20.1733 285.029 19.8C285.749 19.4 286.629 19.2 287.669 19.2H290.029V22.92H287.509C286.176 22.92 285.082 23.2933 284.229 24.04C283.376 24.76 282.949 25.88 282.949 27.4V39H278.829ZM302.835 39.56C300.861 39.56 299.101 39.16 297.555 38.36C296.035 37.5333 294.835 36.36 293.955 34.84C293.075 33.32 292.635 31.52 292.635 29.44V28.84C292.635 26.76 293.075 24.9733 293.955 23.48C294.835 21.96 296.035 20.7867 297.555 19.96C299.101 19.1333 300.861 18.72 302.835 18.72C304.808 18.72 306.568 19.1333 308.115 19.96C309.661 20.7867 310.875 21.96 311.755 23.48C312.635 24.9733 313.075 26.76 313.075 28.84V29.44C313.075 31.52 312.635 33.32 311.755 34.84C310.875 36.36 309.661 37.5333 308.115 38.36C306.568 39.16 304.808 39.56 302.835 39.56ZM302.835 35.88C304.648 35.88 306.115 35.3067 307.235 34.16C308.381 32.9867 308.955 31.3733 308.955 29.32V28.96C308.955 26.9067 308.395 25.3067 307.275 24.16C306.155 22.9867 304.675 22.4 302.835 22.4C301.048 22.4 299.581 22.9867 298.435 24.16C297.315 25.3067 296.755 26.9067 296.755 28.96V29.32C296.755 31.3733 297.315 32.9867 298.435 34.16C299.581 35.3067 301.048 35.88 302.835 35.88ZM327.364 39.56C325.471 39.56 323.751 39.16 322.204 38.36C320.684 37.56 319.471 36.4 318.564 34.88C317.684 33.36 317.244 31.5333 317.244 29.4V28.88C317.244 26.7467 317.684 24.9333 318.564 23.44C319.471 21.92 320.684 20.76 322.204 19.96C323.751 19.1333 325.471 18.72 327.364 18.72C329.257 18.72 330.871 19.0667 332.204 19.76C333.537 20.4533 334.604 21.3733 335.404 22.52C336.231 23.6667 336.764 24.9333 337.004 26.32L333.004 27.16C332.871 26.28 332.591 25.48 332.164 24.76C331.737 24.04 331.137 23.4667 330.364 23.04C329.591 22.6133 328.617 22.4 327.444 22.4C326.297 22.4 325.257 22.6667 324.324 23.2C323.417 23.7067 322.697 24.4533 322.164 25.44C321.631 26.4 321.364 27.5733 321.364 28.96V29.32C321.364 30.7067 321.631 31.8933 322.164 32.88C322.697 33.8667 323.417 34.6133 324.324 35.12C325.257 35.6267 326.297 35.88 327.444 35.88C329.177 35.88 330.497 35.44 331.404 34.56C332.311 33.6533 332.884 32.5067 333.124 31.12L337.124 32.04C336.804 33.4 336.231 34.6533 335.404 35.8C334.604 36.9467 333.537 37.8667 332.204 38.56C330.871 39.2267 329.257 39.56 327.364 39.56ZM350.916 39.56C348.916 39.56 347.169 39.1467 345.676 38.32C344.183 37.4667 343.009 36.28 342.156 34.76C341.329 33.2133 340.916 31.4267 340.916 29.4V28.92C340.916 26.8667 341.329 25.08 342.156 23.56C342.983 22.0133 344.129 20.8267 345.596 20C347.089 19.1467 348.809 18.72 350.756 18.72C352.649 18.72 354.303 19.1467 355.716 20C357.156 20.8267 358.276 21.9867 359.076 23.48C359.876 24.9733 360.276 26.72 360.276 28.72V30.28H345.116C345.169 32.0133 345.743 33.4 346.836 34.44C347.956 35.4533 349.343 35.96 350.996 35.96C352.543 35.96 353.703 35.6133 354.476 34.92C355.276 34.2267 355.889 33.4267 356.316 32.52L359.716 34.28C359.343 35.0267 358.796 35.8133 358.076 36.64C357.383 37.4667 356.463 38.16 355.316 38.72C354.169 39.28 352.703 39.56 350.916 39.56ZM345.156 27.12H356.076C355.969 25.6267 355.436 24.4667 354.476 23.64C353.516 22.7867 352.263 22.36 350.716 22.36C349.169 22.36 347.903 22.7867 346.916 23.64C345.956 24.4667 345.369 25.6267 345.156 27.12ZM373.315 39.56C370.809 39.56 368.729 39 367.075 37.88C365.422 36.76 364.409 35.0667 364.035 32.8L367.875 31.88C368.089 32.9733 368.449 33.84 368.955 34.48C369.462 35.12 370.089 35.5733 370.835 35.84C371.609 36.1067 372.435 36.24 373.315 36.24C374.622 36.24 375.622 35.9867 376.315 35.48C377.035 34.9733 377.395 34.32 377.395 33.52C377.395 32.72 377.062 32.1333 376.395 31.76C375.729 31.3867 374.742 31.08 373.435 30.84L372.075 30.6C370.742 30.36 369.529 30.0133 368.435 29.56C367.342 29.1067 366.475 28.48 365.835 27.68C365.195 26.88 364.875 25.8533 364.875 24.6C364.875 22.7333 365.569 21.2933 366.955 20.28C368.342 19.24 370.182 18.72 372.475 18.72C374.689 18.72 376.502 19.2267 377.915 20.24C379.355 21.2267 380.289 22.5733 380.715 24.28L376.875 25.36C376.635 24.16 376.129 23.32 375.355 22.84C374.582 22.3333 373.622 22.08 372.475 22.08C371.355 22.08 370.475 22.2933 369.835 22.72C369.195 23.12 368.875 23.6933 368.875 24.44C368.875 25.24 369.182 25.8267 369.795 26.2C370.435 26.5733 371.289 26.8533 372.355 27.04L373.755 27.28C375.169 27.52 376.462 27.8533 377.635 28.28C378.809 28.7067 379.729 29.32 380.395 30.12C381.089 30.92 381.435 31.9867 381.435 33.32C381.435 35.2933 380.702 36.8267 379.235 37.92C377.769 39.0133 375.795 39.56 373.315 39.56ZM394.331 39.56C391.824 39.56 389.744 39 388.091 37.88C386.438 36.76 385.424 35.0667 385.051 32.8L388.891 31.88C389.104 32.9733 389.464 33.84 389.971 34.48C390.478 35.12 391.104 35.5733 391.851 35.84C392.624 36.1067 393.451 36.24 394.331 36.24C395.638 36.24 396.638 35.9867 397.331 35.48C398.051 34.9733 398.411 34.32 398.411 33.52C398.411 32.72 398.078 32.1333 397.411 31.76C396.744 31.3867 395.758 31.08 394.451 30.84L393.091 30.6C391.758 30.36 390.544 30.0133 389.451 29.56C388.358 29.1067 387.491 28.48 386.851 27.68C386.211 26.88 385.891 25.8533 385.891 24.6C385.891 22.7333 386.584 21.2933 387.971 20.28C389.358 19.24 391.198 18.72 393.491 18.72C395.704 18.72 397.518 19.2267 398.931 20.24C400.371 21.2267 401.304 22.5733 401.731 24.28L397.891 25.36C397.651 24.16 397.144 23.32 396.371 22.84C395.598 22.3333 394.638 22.08 393.491 22.08C392.371 22.08 391.491 22.2933 390.851 22.72C390.211 23.12 389.891 23.6933 389.891 24.44C389.891 25.24 390.198 25.8267 390.811 26.2C391.451 26.5733 392.304 26.8533 393.371 27.04L394.771 27.28C396.184 27.52 397.478 27.8533 398.651 28.28C399.824 28.7067 400.744 29.32 401.411 30.12C402.104 30.92 402.451 31.9867 402.451 33.32C402.451 35.2933 401.718 36.8267 400.251 37.92C398.784 39.0133 396.811 39.56 394.331 39.56Z" fill="black"/>
</svg>
